<svg width="22" height="22" viewBox="0 0 22 22" fill="none" xmlns="http://www.w3.org/2000/svg">
<g id="Icons">
<path id="search_on" d="M18.1728 19.8458L12.3519 14.025C11.8936 14.3763 11.3322 14.6552 10.6676 14.8614C10.003 15.0677 9.32695 15.1708 8.63945 15.1708C6.8214 15.1708 5.28217 14.5406 4.02175 13.2802C2.76134 12.0198 2.13113 10.4805 2.13113 8.66247C2.13113 6.84442 2.76134 5.30518 4.02175 4.04477C5.28217 2.78436 6.8214 2.15415 8.63945 2.15415C10.4575 2.15415 11.9967 2.78436 13.2571 4.04477C14.5176 5.30518 15.1478 6.84442 15.1478 8.66247C15.1478 9.34997 15.0523 10.0069 14.8613 10.6333C14.6703 11.2597 14.3915 11.8173 14.0249 12.3062L19.8686 18.1499L18.1728 19.8458ZM8.63945 12.7416C9.78528 12.7416 10.7516 12.3482 11.5384 11.5614C12.3252 10.7746 12.7186 9.8083 12.7186 8.66247C12.7186 7.51664 12.3252 6.55032 11.5384 5.76352C10.7516 4.97671 9.78528 4.58331 8.63945 4.58331C7.49362 4.58331 6.5273 4.97671 5.7405 5.76352C4.9537 6.55032 4.56029 7.51664 4.56029 8.66247C4.56029 9.8083 4.9537 10.7746 5.7405 11.5614C6.5273 12.3482 7.49362 12.7416 8.63945 12.7416Z" fill="#FEFEFE"/>
</g>
</svg>
