<svg width="22" height="22" viewBox="0 0 22 22" fill="none" xmlns="http://www.w3.org/2000/svg">
<g id="Icons">
<path id="share" d="M16.5 20.1667C15.7361 20.1667 15.0868 19.8993 14.5521 19.3646C14.0173 18.8299 13.75 18.1806 13.75 17.4167C13.75 17.325 13.7729 17.1111 13.8187 16.775L7.37917 13.0167C7.13473 13.2459 6.85209 13.4254 6.53126 13.5552C6.21042 13.6851 5.86667 13.75 5.50001 13.75C4.73612 13.75 4.08682 13.4827 3.5521 12.9479C3.01738 12.4132 2.75002 11.7639 2.75002 11C2.75002 10.2361 3.01738 9.58684 3.5521 9.05212C4.08682 8.5174 4.73612 8.25003 5.50001 8.25003C5.86667 8.25003 6.21042 8.31497 6.53126 8.44483C6.85209 8.57469 7.13473 8.7542 7.37917 8.98337L13.8187 5.22504C13.7882 5.1181 13.7691 5.01497 13.7614 4.91567C13.7538 4.81636 13.75 4.7056 13.75 4.58338C13.75 3.81949 14.0173 3.17019 14.5521 2.63547C15.0868 2.10075 15.7361 1.83338 16.5 1.83338C17.2639 1.83338 17.9132 2.10075 18.4479 2.63547C18.9826 3.17019 19.25 3.81949 19.25 4.58338C19.25 5.34726 18.9826 5.99657 18.4479 6.53129C17.9132 7.06601 17.2639 7.33337 16.5 7.33337C16.1333 7.33337 15.7896 7.26844 15.4687 7.13858C15.1479 7.00872 14.8653 6.82921 14.6208 6.60004L8.18125 10.3584C8.21181 10.4653 8.2309 10.5684 8.23854 10.6677C8.24618 10.767 8.25 10.8778 8.25 11C8.25 11.1222 8.24618 11.233 8.23854 11.3323C8.2309 11.4316 8.21181 11.5347 8.18125 11.6417L14.6208 15.4C14.8653 15.1709 15.1479 14.9913 15.4687 14.8615C15.7896 14.7316 16.1333 14.6667 16.5 14.6667C17.2639 14.6667 17.9132 14.934 18.4479 15.4688C18.9826 16.0035 19.25 16.6528 19.25 17.4167C19.25 18.1806 18.9826 18.8299 18.4479 19.3646C17.9132 19.8993 17.2639 20.1667 16.5 20.1667Z" fill="#FEFEFE"/>
</g>
</svg>
