<svg width="22" height="22" viewBox="0 0 22 22" fill="none" xmlns="http://www.w3.org/2000/svg">
<g id="Icons">
<path id="search_on" d="M18.1729 19.8457L12.3521 14.0249C11.8938 14.3763 11.3323 14.6551 10.6678 14.8613C10.0032 15.0676 9.32714 15.1707 8.63965 15.1707C6.82161 15.1707 5.28238 14.5405 4.02198 13.2801C2.76157 12.0197 2.13137 10.4805 2.13137 8.66242C2.13137 6.84438 2.76157 5.30515 4.02198 4.04475C5.28238 2.78434 6.82161 2.15414 8.63965 2.15414C10.4577 2.15414 11.9969 2.78434 13.2573 4.04475C14.5177 5.30515 15.1479 6.84438 15.1479 8.66242C15.1479 9.34991 15.0524 10.0069 14.8615 10.6332C14.6705 11.2596 14.3917 11.8173 14.025 12.3061L19.8687 18.1498L18.1729 19.8457ZM8.63965 12.7416C9.78547 12.7416 10.7518 12.3482 11.5386 11.5614C12.3254 10.7746 12.7188 9.80824 12.7188 8.66242C12.7188 7.51659 12.3254 6.55028 11.5386 5.76348C10.7518 4.97668 9.78547 4.58329 8.63965 4.58329C7.49382 4.58329 6.52751 4.97668 5.74071 5.76348C4.95391 6.55028 4.56051 7.51659 4.56051 8.66242C4.56051 9.80824 4.95391 10.7746 5.74071 11.5614C6.52751 12.3482 7.49382 12.7416 8.63965 12.7416Z" fill="#FEFEFE"/>
</g>
</svg>
