<svg width="22" height="22" viewBox="0 0 22 22" fill="none" xmlns="http://www.w3.org/2000/svg">
<g id="Icons">
<path id="share" d="M16.4996 20.1666C15.7358 20.1666 15.0865 19.8992 14.5517 19.3645C14.017 18.8298 13.7497 18.1805 13.7497 17.4166C13.7497 17.3249 13.7726 17.111 13.8184 16.7749L7.37888 13.0166C7.13444 13.2458 6.8518 13.4253 6.53097 13.5552C6.21014 13.685 5.8664 13.7499 5.49973 13.7499C4.73585 13.7499 4.08655 13.4826 3.55183 12.9479C3.01711 12.4131 2.74975 11.7638 2.74975 11C2.74975 10.2361 3.01711 9.58678 3.55183 9.05207C4.08655 8.51735 4.73585 8.24999 5.49973 8.24999C5.8664 8.24999 6.21014 8.31492 6.53097 8.44478C6.8518 8.57464 7.13444 8.75415 7.37888 8.98332L13.8184 5.22501C13.7879 5.11807 13.7688 5.01495 13.7611 4.91564C13.7535 4.81634 13.7497 4.70557 13.7497 4.58335C13.7497 3.81947 14.017 3.17017 14.5517 2.63545C15.0865 2.10073 15.7358 1.83337 16.4996 1.83337C17.2635 1.83337 17.9128 2.10073 18.4475 2.63545C18.9823 3.17017 19.2496 3.81947 19.2496 4.58335C19.2496 5.34723 18.9823 5.99653 18.4475 6.53125C17.9128 7.06597 17.2635 7.33333 16.4996 7.33333C16.133 7.33333 15.7892 7.2684 15.4684 7.13854C15.1476 7.00868 14.8649 6.82917 14.6205 6.6L8.18096 10.3583C8.21151 10.4652 8.23061 10.5684 8.23825 10.6677C8.24589 10.767 8.24971 10.8777 8.24971 11C8.24971 11.1222 8.24589 11.233 8.23825 11.3323C8.23061 11.4316 8.21151 11.5347 8.18096 11.6416L14.6205 15.3999C14.8649 15.1708 15.1476 14.9913 15.4684 14.8614C15.7892 14.7315 16.133 14.6666 16.4996 14.6666C17.2635 14.6666 17.9128 14.934 18.4475 15.4687C18.9823 16.0034 19.2496 16.6527 19.2496 17.4166C19.2496 18.1805 18.9823 18.8298 18.4475 19.3645C17.9128 19.8992 17.2635 20.1666 16.4996 20.1666Z" fill="#FEFEFE"/>
</g>
</svg>
