<svg width="24" height="24" viewBox="0 0 24 24" fill="none" xmlns="http://www.w3.org/2000/svg">
<g id="Icons">
<path id="search_on" d="M19.8252 21.65L13.4752 15.3C12.9752 15.6833 12.3627 15.9875 11.6377 16.2125C10.9127 16.4375 10.1752 16.55 9.4252 16.55C7.44186 16.55 5.7627 15.8625 4.3877 14.4875C3.0127 13.1125 2.3252 11.4333 2.3252 9.44998C2.3252 7.46664 3.0127 5.78748 4.3877 4.41248C5.7627 3.03748 7.44186 2.34998 9.4252 2.34998C11.4085 2.34998 13.0877 3.03748 14.4627 4.41248C15.8377 5.78748 16.5252 7.46664 16.5252 9.44998C16.5252 10.2 16.421 10.9166 16.2127 11.6C16.0044 12.2833 15.7002 12.8916 15.3002 13.425L21.6752 19.8L19.8252 21.65ZM9.4252 13.9C10.6752 13.9 11.7294 13.4708 12.5877 12.6125C13.446 11.7541 13.8752 10.7 13.8752 9.44998C13.8752 8.19998 13.446 7.14581 12.5877 6.28748C11.7294 5.42914 10.6752 4.99998 9.4252 4.99998C8.1752 4.99998 7.12103 5.42914 6.2627 6.28748C5.40436 7.14581 4.9752 8.19998 4.9752 9.44998C4.9752 10.7 5.40436 11.7541 6.2627 12.6125C7.12103 13.4708 8.1752 13.9 9.4252 13.9Z" fill="#404040"/>
</g>
</svg>
