<svg width="22" height="22" viewBox="0 0 22 22" fill="none" xmlns="http://www.w3.org/2000/svg">
<g id="Icons">
<path id="location_on" d="M11.0001 11C11.5042 11 11.9358 10.8205 12.2949 10.4615C12.6539 10.1025 12.8334 9.67086 12.8334 9.1667C12.8334 8.66253 12.6539 8.23094 12.2949 7.87191C11.9358 7.51288 11.5042 7.33337 11.0001 7.33337C10.4959 7.33337 10.0643 7.51288 9.7053 7.87191C9.34627 8.23094 9.16676 8.66253 9.16676 9.1667C9.16676 9.67086 9.34627 10.1025 9.7053 10.4615C10.0643 10.8205 10.4959 11 11.0001 11ZM11.0001 20.1667C8.54037 18.0736 6.70322 16.1295 5.48864 14.3344C4.27406 12.5393 3.66677 10.8778 3.66677 9.35003C3.66677 7.05837 4.40392 5.23268 5.87822 3.87296C7.35252 2.51324 9.05981 1.83338 11.0001 1.83338C12.9404 1.83338 14.6476 2.51324 16.1219 3.87296C17.5962 5.23268 18.3334 7.05837 18.3334 9.35003C18.3334 10.8778 17.7261 12.5393 16.5115 14.3344C15.2969 16.1295 13.4598 18.0736 11.0001 20.1667Z" fill="#FEFEFE"/>
</g>
</svg>
