<svg width="22" height="22" viewBox="0 0 22 22" fill="none" xmlns="http://www.w3.org/2000/svg">
<g id="Icons">
<path id="location_on" d="M10.9998 11C11.5039 11 11.9355 10.8205 12.2946 10.4614C12.6536 10.1024 12.8331 9.67081 12.8331 9.16665C12.8331 8.66249 12.6536 8.23089 12.2946 7.87187C11.9355 7.51284 11.5039 7.33333 10.9998 7.33333C10.4956 7.33333 10.064 7.51284 9.705 7.87187C9.34597 8.23089 9.16646 8.66249 9.16646 9.16665C9.16646 9.67081 9.34597 10.1024 9.705 10.4614C10.064 10.8205 10.4956 11 10.9998 11ZM10.9998 20.1666C8.54007 18.0735 6.70294 16.1294 5.48836 14.3343C4.27379 12.5392 3.6665 10.8777 3.6665 9.34998C3.6665 7.05833 4.40365 5.23265 5.87794 3.87294C7.35224 2.51323 9.05951 1.83337 10.9998 1.83337C12.94 1.83337 14.6473 2.51323 16.1216 3.87294C17.5959 5.23265 18.3331 7.05833 18.3331 9.34998C18.3331 10.8777 17.7258 12.5392 16.5112 14.3343C15.2966 16.1294 13.4595 18.0735 10.9998 20.1666Z" fill="#FEFEFE"/>
</g>
</svg>
